<svg id="SvgjsSvg1145" width="813.03125" height="354.625" xmlns="http://www.w3.org/2000/svg" version="1.1" xmlns:xlink="http://www.w3.org/1999/xlink" xmlns:svgjs="http://svgjs.com/svgjs"><defs id="SvgjsDefs1146"><marker id="SvgjsMarker1214" markerWidth="16" markerHeight="12" refX="16" refY="6" viewBox="0 0 16 12" orient="auto" markerUnits="userSpaceOnUse" stroke-dasharray="0,0"><path id="SvgjsPath1215" d="M0,2 L14,6 L0,11 L0,2" fill="#323232" stroke="#323232" stroke-width="2"></path></marker><marker id="SvgjsMarker1218" markerWidth="16" markerHeight="12" refX="16" refY="6" viewBox="0 0 16 12" orient="auto" markerUnits="userSpaceOnUse" stroke-dasharray="0,0"><path id="SvgjsPath1219" d="M0,2 L14,6 L0,11 L0,2" fill="#323232" stroke="#323232" stroke-width="2"></path></marker><marker id="SvgjsMarker1230" markerWidth="16" markerHeight="12" refX="16" refY="6" viewBox="0 0 16 12" orient="auto" markerUnits="userSpaceOnUse" stroke-dasharray="0,0"><path id="SvgjsPath1231" d="M0,2 L14,6 L0,11 L0,2" fill="#323232" stroke="#323232" stroke-width="2"></path></marker><marker id="SvgjsMarker1242" markerWidth="16" markerHeight="12" refX="16" refY="6" viewBox="0 0 16 12" orient="auto" markerUnits="userSpaceOnUse" stroke-dasharray="0,0"><path id="SvgjsPath1243" d="M0,2 L14,6 L0,11 L0,2" fill="#323232" stroke="#323232" stroke-width="2"></path></marker><marker id="SvgjsMarker1246" markerWidth="16" markerHeight="12" refX="16" refY="6" viewBox="0 0 16 12" orient="auto" markerUnits="userSpaceOnUse" stroke-dasharray="0,0"><path id="SvgjsPath1247" d="M0,2 L14,6 L0,11 L0,2" fill="#323232" stroke="#323232" stroke-width="2"></path></marker><marker id="SvgjsMarker1250" markerWidth="16" markerHeight="12" refX="16" refY="6" viewBox="0 0 16 12" orient="auto" markerUnits="userSpaceOnUse" stroke-dasharray="0,0"><path id="SvgjsPath1251" d="M0,2 L14,6 L0,11 L0,2" fill="#323232" stroke="#323232" stroke-width="2"></path></marker><marker id="SvgjsMarker1254" markerWidth="16" markerHeight="12" refX="16" refY="6" viewBox="0 0 16 12" orient="auto" markerUnits="userSpaceOnUse" stroke-dasharray="0,0"><path id="SvgjsPath1255" d="M0,2 L14,6 L0,11 L0,2" fill="#323232" stroke="#323232" stroke-width="2"></path></marker><marker id="SvgjsMarker1258" markerWidth="16" markerHeight="12" refX="16" refY="6" viewBox="0 0 16 12" orient="auto" markerUnits="userSpaceOnUse" stroke-dasharray="0,0"><path id="SvgjsPath1259" d="M0,2 L14,6 L0,11 L0,2" fill="#323232" stroke="#323232" stroke-width="2"></path></marker><marker id="SvgjsMarker1262" markerWidth="16" markerHeight="12" refX="16" refY="6" viewBox="0 0 16 12" orient="auto" markerUnits="userSpaceOnUse" stroke-dasharray="0,0"><path id="SvgjsPath1263" d="M0,2 L14,6 L0,11 L0,2" fill="#323232" stroke="#323232" stroke-width="2"></path></marker><marker id="SvgjsMarker1266" markerWidth="16" markerHeight="12" refX="16" refY="6" viewBox="0 0 16 12" orient="auto" markerUnits="userSpaceOnUse" stroke-dasharray="0,0"><path id="SvgjsPath1267" d="M0,2 L14,6 L0,11 L0,2" fill="#323232" stroke="#323232" stroke-width="2"></path></marker><marker id="SvgjsMarker1270" markerWidth="16" markerHeight="12" refX="16" refY="6" viewBox="0 0 16 12" orient="auto" markerUnits="userSpaceOnUse" stroke-dasharray="0,0"><path id="SvgjsPath1271" d="M0,2 L14,6 L0,11 L0,2" fill="#323232" stroke="#323232" stroke-width="2"></path></marker><marker id="SvgjsMarker1274" markerWidth="16" markerHeight="12" refX="16" refY="6" viewBox="0 0 16 12" orient="auto" markerUnits="userSpaceOnUse" stroke-dasharray="0,0"><path id="SvgjsPath1275" d="M0,2 L14,6 L0,11 L0,2" fill="#323232" stroke="#323232" stroke-width="2"></path></marker><marker id="SvgjsMarker1278" markerWidth="16" markerHeight="12" refX="16" refY="6" viewBox="0 0 16 12" orient="auto" markerUnits="userSpaceOnUse" stroke-dasharray="0,0"><path id="SvgjsPath1279" d="M0,2 L14,6 L0,11 L0,2" fill="#323232" stroke="#323232" stroke-width="2"></path></marker><marker id="SvgjsMarker1282" markerWidth="16" markerHeight="12" refX="16" refY="6" viewBox="0 0 16 12" orient="auto" markerUnits="userSpaceOnUse" stroke-dasharray="0,0"><path id="SvgjsPath1283" d="M0,2 L14,6 L0,11 L0,2" fill="#323232" stroke="#323232" stroke-width="2"></path></marker></defs><g id="SvgjsG1147" transform="translate(25.01487401844065,109)"><path id="SvgjsPath1148" d="M 0 11.9C 0 -3.4 135 -3.4 135 11.9L 135 73.1C 135 88.4 0 88.4 0 73.1L 0 11.9Z" stroke="rgba(50,50,50,1)" stroke-width="2" fill-opacity="1" fill="#ffffff"></path><path id="SvgjsPath1149" d="M 135 11.9C 135 25.5 0 25.5 0 11.9L 0 17C 0 30.599999999999998 135 30.599999999999998 135 17L 135 22.1C 135 35.699999999999996 0 35.699999999999996 0 22.1C 0 35.699999999999996 135 35.699999999999996 135 22.1Z" stroke="rgba(50,50,50,1)" stroke-width="2" fill-opacity="1" fill="#ffffff"></path><path id="SvgjsPath1150" d="M 0 8.5Q 67.5 -8.5 135 8.5L 135 76.5Q 67.5 93.50000000000001 0 76.5L 0 8.5Z" stroke="none" fill="none"></path><g id="SvgjsG1151"><text id="SvgjsText1152" font-family="微软雅黑" text-anchor="middle" font-size="18px" width="135px" fill="#4d9900" font-weight="700" align="middle" lineHeight="125%" anchor="middle" family="微软雅黑" size="18px" weight="700" font-style="" opacity="1" y="43.416666666666664" transform="rotate(0)"><tspan id="SvgjsTspan1153" dy="22" x="67.5"><tspan id="SvgjsTspan1154" style="text-decoration:;">DataBags</tspan></tspan></text></g></g><g id="SvgjsG1155" transform="translate(228.07090102553934,259)"><path id="SvgjsPath1156" d="M 12.595513302062312 0L 76.13675534708209 0C 86.10645231677906 0 86.10645231677906 47 76.13675534708209 47L 12.595513302062312 47C -4.198504434020771 47 -4.198504434020771 0 12.595513302062312 0ZM 76.13675534708209 0C 66.34508868041542 0 66.34508868041542 47 76.13675534708209 47C 66.34508868041542 47 66.34508868041542 0 76.13675534708209 0" stroke="rgba(50,50,50,1)" stroke-width="2" fill-opacity="1" fill="#ffffff"></path><g id="SvgjsG1157"><text id="SvgjsText1158" font-family="微软雅黑" text-anchor="middle" font-size="15px" width="68px" fill="#323232" font-weight="400" align="middle" lineHeight="125%" anchor="middle" family="微软雅黑" size="15px" weight="400" font-style="" opacity="1" y="12.625" transform="rotate(0)"><tspan id="SvgjsTspan1159" dy="18" x="34"><tspan id="SvgjsTspan1160" style="text-decoration:;">RTK</tspan></tspan></text></g></g><g id="SvgjsG1161" transform="translate(228.07090102553934,25)"><path id="SvgjsPath1162" d="M 12.595513302062312 0L 76.13675534708209 0C 86.10645231677906 0 86.10645231677906 47 76.13675534708209 47L 12.595513302062312 47C -4.198504434020771 47 -4.198504434020771 0 12.595513302062312 0ZM 76.13675534708209 0C 66.34508868041542 0 66.34508868041542 47 76.13675534708209 47C 66.34508868041542 47 66.34508868041542 0 76.13675534708209 0" stroke="rgba(50,50,50,1)" stroke-width="2" fill-opacity="1" fill="#ffffff"></path><g id="SvgjsG1163"><text id="SvgjsText1164" font-family="微软雅黑" text-anchor="middle" font-size="15px" width="68px" fill="#323232" font-weight="400" align="middle" lineHeight="125%" anchor="middle" family="微软雅黑" size="15px" weight="400" font-style="" opacity="1" y="12.625" transform="rotate(0)"><tspan id="SvgjsTspan1165" dy="18" x="34"><tspan id="SvgjsTspan1166" style="text-decoration:;">IMU</tspan></tspan></text></g></g><g id="SvgjsG1167" transform="translate(228.07090102553934,88)"><path id="SvgjsPath1168" d="M 12.595513302062312 0L 76.13675534708209 0C 86.10645231677906 0 86.10645231677906 47 76.13675534708209 47L 12.595513302062312 47C -4.198504434020771 47 -4.198504434020771 0 12.595513302062312 0ZM 76.13675534708209 0C 66.34508868041542 0 66.34508868041542 47 76.13675534708209 47C 66.34508868041542 47 66.34508868041542 0 76.13675534708209 0" stroke="rgba(50,50,50,1)" stroke-width="2" fill-opacity="1" fill="#ffffff"></path><g id="SvgjsG1169"><text id="SvgjsText1170" font-family="微软雅黑" text-anchor="middle" font-size="15px" width="68px" fill="#323232" font-weight="400" align="middle" lineHeight="125%" anchor="middle" family="微软雅黑" size="15px" weight="400" font-style="" opacity="1" y="12.625" transform="rotate(0)"><tspan id="SvgjsTspan1171" dy="18" x="34"><tspan id="SvgjsTspan1172" style="text-decoration:;">Wheel</tspan></tspan></text></g></g><g id="SvgjsG1173" transform="translate(228.07090102553934,154)"><path id="SvgjsPath1174" d="M 12.595513302062312 0L 76.13675534708209 0C 86.10645231677906 0 86.10645231677906 47 76.13675534708209 47L 12.595513302062312 47C -4.198504434020771 47 -4.198504434020771 0 12.595513302062312 0ZM 76.13675534708209 0C 66.34508868041542 0 66.34508868041542 47 76.13675534708209 47C 66.34508868041542 47 66.34508868041542 0 76.13675534708209 0" stroke="rgba(50,50,50,1)" stroke-width="2" fill-opacity="1" fill="#ffffff"></path><g id="SvgjsG1175"><text id="SvgjsText1176" font-family="微软雅黑" text-anchor="middle" font-size="15px" width="68px" fill="#323232" font-weight="400" align="middle" lineHeight="125%" anchor="middle" family="微软雅黑" size="15px" weight="400" font-style="" opacity="1" y="12.625" transform="rotate(0)"><tspan id="SvgjsTspan1177" dy="18" x="34"><tspan id="SvgjsTspan1178" style="text-decoration:;">Scans</tspan></tspan></text></g></g><g id="SvgjsG1179" transform="translate(398.81545662573944,31.375)"><path id="SvgjsPath1180" d="M 0 0L 124.2255330802152 0L 124.2255330802152 34.25L 0 34.25Z" stroke="rgba(50,50,50,1)" stroke-width="2" fill-opacity="1" fill="#ffffff"></path><g id="SvgjsG1181"><text id="SvgjsText1182" font-family="微软雅黑" text-anchor="middle" font-size="15px" width="105px" fill="#323232" font-weight="400" align="middle" lineHeight="125%" anchor="middle" family="微软雅黑" size="15px" weight="400" font-style="" opacity="1" y="6.25" transform="rotate(0)"><tspan id="SvgjsTspan1183" dy="18" x="62.5"><tspan id="SvgjsTspan1184" style="text-decoration:;">DeadReckoning</tspan></tspan></text></g></g><g id="SvgjsG1185" transform="translate(364.81545662573944,145.375)"><path id="SvgjsPath1186" d="M 0 0L 192.2255330802152 0L 192.2255330802152 64.25L 0 64.25Z" stroke="rgba(50,50,50,1)" stroke-width="2" fill-opacity="1" fill="#ffffff"></path><g id="SvgjsG1187"><text id="SvgjsText1188" font-family="微软雅黑" text-anchor="middle" font-size="16px" width="173px" fill="#323232" font-weight="400" align="middle" lineHeight="125%" anchor="middle" family="微软雅黑" size="16px" weight="400" font-style="" opacity="1" y="0.125" transform="rotate(0)"><tspan id="SvgjsTspan1189" dy="20" x="96.5"><tspan id="SvgjsTspan1190" style="text-decoration:;">LidarOdometry</tspan></tspan><tspan id="SvgjsTspan1191" dy="20" x="96.5"><tspan id="SvgjsTspan1192" style="text-decoration:;">(scan2scan&amp;scan2submap</tspan></tspan><tspan id="SvgjsTspan1193" dy="20" x="96.5"><tspan id="SvgjsTspan1194" style="text-decoration:;">SegMatch...strategy</tspan><tspan id="SvgjsTspan1195" style="text-decoration:;font-size: inherit;">)</tspan></tspan></text></g></g><g id="SvgjsG1196" transform="translate(398.81545662573944,265.375)"><path id="SvgjsPath1197" d="M 0 0L 124.2255330802152 0L 124.2255330802152 34.25L 0 34.25Z" stroke="rgba(50,50,50,1)" stroke-width="2" fill-opacity="1" fill="#ffffff"></path><g id="SvgjsG1198"><text id="SvgjsText1199" font-family="微软雅黑" text-anchor="middle" font-size="15px" width="105px" fill="#323232" font-weight="400" align="middle" lineHeight="125%" anchor="middle" family="微软雅黑" size="15px" weight="400" font-style="" opacity="1" y="-2.75" transform="rotate(0)"><tspan id="SvgjsTspan1200" dy="18" x="62.5"><tspan id="SvgjsTspan1201" style="text-decoration:;">Optimization</tspan></tspan><tspan id="SvgjsTspan1202" dy="18" x="62.5"><tspan id="SvgjsTspan1203" style="text-decoration:;">(DR/Lidar/RTK)</tspan></tspan></text></g></g><g id="SvgjsG1204" transform="translate(585.0408429013441,243.625)"><path id="SvgjsPath1205" d="M 0 0L 202.2255330802153 0L 202.2255330802153 56L 0 56Z" stroke="rgba(50,50,50,1)" stroke-width="2" fill-opacity="1" fill="#ffffff"></path><g id="SvgjsG1206"><text id="SvgjsText1207" font-family="微软雅黑" text-anchor="middle" font-size="15px" width="183px" fill="#323232" font-weight="400" align="middle" lineHeight="125%" anchor="middle" family="微软雅黑" size="15px" weight="400" font-style="" opacity="1" y="8.125" transform="rotate(0)"><tspan id="SvgjsTspan1208" dy="18" x="101.5"><tspan id="SvgjsTspan1209" style="text-decoration:;">MapRefination</tspan></tspan><tspan id="SvgjsTspan1210" dy="18" x="101.5"><tspan id="SvgjsTspan1211" style="text-decoration:;">(LoopClosure&amp;Optimization)</tspan></tspan></text></g></g><g id="SvgjsG1212"><path id="SvgjsPath1213" d="M312.04098970595464 48.5L398.81545662573944 48.5" stroke="#323232" stroke-width="2" fill="none" marker-end="url(#SvgjsMarker1214)"></path></g><g id="SvgjsG1216"><path id="SvgjsPath1217" d="M312.04098970595464 111.5L398.81545662573944 48.5" stroke="#323232" stroke-width="2" fill="none" marker-end="url(#SvgjsMarker1218)"></path></g><g id="SvgjsG1220" transform="translate(624.0408429013444,157)"><path id="SvgjsPath1221" d="M 0 0L 124.2255330802152 0L 124.2255330802152 34.25L 0 34.25Z" stroke="rgba(50,50,50,1)" stroke-width="2" fill-opacity="1" fill="#ffffff"></path><g id="SvgjsG1222"><text id="SvgjsText1223" font-family="微软雅黑" text-anchor="middle" font-size="15px" width="105px" fill="#323232" font-weight="400" align="middle" lineHeight="125%" anchor="middle" family="微软雅黑" size="15px" weight="400" font-style="" opacity="1" y="-2.75" transform="rotate(0)"><tspan id="SvgjsTspan1224" dy="18" x="62.5"><tspan id="SvgjsTspan1225" style="text-decoration:;">Evaluate&amp;</tspan></tspan><tspan id="SvgjsTspan1226" dy="18" x="62.5"><tspan id="SvgjsTspan1227" style="text-decoration:;">Validation</tspan></tspan></text></g></g><g id="SvgjsG1228"><path id="SvgjsPath1229" d="M160.01487401844065 151.5L194.04288752199 151.5L194.04288752199 48.5L228.07090102553934 48.5" stroke="#323232" stroke-width="2" fill="none" marker-end="url(#SvgjsMarker1230)"></path></g><g id="SvgjsG1232" transform="translate(618.6536094414519,39.625)"><path id="SvgjsPath1233" d="M 0 11.9C 0 -3.4 135 -3.4 135 11.9L 135 73.1C 135 88.4 0 88.4 0 73.1L 0 11.9Z" stroke="rgba(50,50,50,1)" stroke-width="2" fill-opacity="1" fill="#ffffff"></path><path id="SvgjsPath1234" d="M 135 11.9C 135 25.5 0 25.5 0 11.9L 0 17C 0 30.599999999999998 135 30.599999999999998 135 17L 135 22.1C 135 35.699999999999996 0 35.699999999999996 0 22.1C 0 35.699999999999996 135 35.699999999999996 135 22.1Z" stroke="rgba(50,50,50,1)" stroke-width="2" fill-opacity="1" fill="#ffffff"></path><path id="SvgjsPath1235" d="M 0 8.5Q 67.5 -8.5 135 8.5L 135 76.5Q 67.5 93.50000000000001 0 76.5L 0 8.5Z" stroke="none" fill="none"></path><g id="SvgjsG1236"><text id="SvgjsText1237" font-family="微软雅黑" text-anchor="middle" font-size="18px" width="135px" fill="#4d9900" font-weight="700" align="middle" lineHeight="125%" anchor="middle" family="微软雅黑" size="18px" weight="700" font-style="" opacity="1" y="43.416666666666664" transform="rotate(0)"><tspan id="SvgjsTspan1238" dy="22" x="67.5"><tspan id="SvgjsTspan1239" style="text-decoration:;">MapPool</tspan></tspan></text></g></g><g id="SvgjsG1240"><path id="SvgjsPath1241" d="M160.01487401844065 151.5L194.04288752199 151.5L194.04288752199 111.5L228.07090102553934 111.5" stroke="#323232" stroke-width="2" fill="none" marker-end="url(#SvgjsMarker1242)"></path></g><g id="SvgjsG1244"><path id="SvgjsPath1245" d="M160.01487401844065 151.5L194.04288752199 151.5L194.04288752199 177.5L228.07090102553934 177.5" stroke="#323232" stroke-width="2" fill="none" marker-end="url(#SvgjsMarker1246)"></path></g><g id="SvgjsG1248"><path id="SvgjsPath1249" d="M160.01487401844065 151.5L194.04288752199 151.5L194.04288752199 282.5L228.07090102553934 282.5" stroke="#323232" stroke-width="2" fill="none" marker-end="url(#SvgjsMarker1250)"></path></g><g id="SvgjsG1252"><path id="SvgjsPath1253" d="M460.92822316584693 65.625L460.92822316584693 105.5L460.92822316584693 105.5L460.92822316584693 145.375" stroke="#323232" stroke-width="2" fill="none" marker-end="url(#SvgjsMarker1254)"></path></g><g id="SvgjsG1256"><path id="SvgjsPath1257" d="M312.04098970595464 177.5L364.81545662573944 177.5" stroke="#323232" stroke-width="2" fill="none" marker-end="url(#SvgjsMarker1258)"></path></g><g id="SvgjsG1260"><path id="SvgjsPath1261" d="M312.04098970595464 282.5L398.81545662573944 282.5" stroke="#323232" stroke-width="2" fill="none" marker-end="url(#SvgjsMarker1262)"></path></g><g id="SvgjsG1264"><path id="SvgjsPath1265" d="M460.92822316584693 209.625L460.92822316584693 265.375" stroke="#323232" stroke-width="2" fill="none" marker-end="url(#SvgjsMarker1266)"></path></g><g id="SvgjsG1268"><path id="SvgjsPath1269" d="M523.0409897059546 48.5L570.0409897059546 48.5L570.0409897059546 282.5L523.0409897059546 282.5" stroke="#323232" stroke-width="2" fill="none" marker-end="url(#SvgjsMarker1270)"></path></g><g id="SvgjsG1272"><path id="SvgjsPath1273" d="M460.92822316584693 299.625L460.92822316584693 329.625L686.1536094414519 329.625L686.1536094414519 299.625" stroke="#323232" stroke-width="2" fill="none" marker-end="url(#SvgjsMarker1274)"></path></g><g id="SvgjsG1276"><path id="SvgjsPath1277" d="M686.1536094414519 243.625L686.1536094414519 217.4375L686.1536094414519 217.4375L686.1536094414519 191.25" stroke="#323232" stroke-width="2" fill="none" marker-end="url(#SvgjsMarker1278)"></path></g><g id="SvgjsG1280"><path id="SvgjsPath1281" d="M686.1536094414519 157L686.1536094414519 140.8125L686.1536094414519 140.8125L686.1536094414519 124.625" stroke="#323232" stroke-width="2" fill="none" marker-end="url(#SvgjsMarker1282)"></path></g></svg>